<svg width="110" height="115" viewBox="0 0 110 115" fill="none" xmlns="http://www.w3.org/2000/svg">
<path d="M89.0266 58.836C87.1016 62.176 82.8046 63.313 79.4526 61.395C78.6561 60.9397 77.9575 60.3314 77.3969 59.6052C76.8363 58.879 76.4247 58.0491 76.1859 57.1633C75.9471 56.2775 75.8857 55.3532 76.0052 54.4436C76.1248 53.534 76.423 52.657 76.8826 51.863C78.8086 48.523 83.1046 47.387 86.4566 49.305C89.8316 51.242 90.9766 55.5 89.0266 58.835V58.836ZM33.0976 26.684C31.1716 30.02 26.8746 31.16 23.5226 29.242C22.7262 28.7862 22.0277 28.1776 21.4672 27.4511C20.9067 26.7246 20.4953 25.8945 20.2565 25.0085C20.0177 24.1225 19.9562 23.1981 20.0757 22.2883C20.1952 21.3785 20.4932 20.5013 20.9526 19.707C22.8786 16.371 27.1756 15.23 30.5266 17.148C33.8786 19.09 35.0226 23.344 33.0966 26.684H33.0976ZM20.9726 58.836C19.0426 55.5 20.1876 51.242 23.5426 49.305C26.8946 47.387 31.1716 48.523 33.1166 51.863C35.0466 55.199 33.9016 59.457 30.5466 61.395C27.1756 63.313 22.8976 62.175 20.9726 58.835V58.836ZM76.9016 26.684C74.9766 23.344 76.1216 19.09 79.4716 17.148C82.8236 15.23 87.1016 16.371 89.0466 19.707C90.9766 23.047 89.8316 27.301 86.4766 29.242C83.1246 31.16 78.8276 30.02 76.9016 26.684ZM54.9996 78.402C51.1246 78.402 47.9916 75.285 47.9916 71.426C47.9916 67.57 51.1246 64.453 54.9996 64.453C58.8746 64.453 62.0076 67.57 62.0076 71.426C62.0076 75.262 58.8746 78.402 54.9996 78.402ZM54.9996 14.094C51.1246 14.094 47.9916 10.977 47.9916 7.11702C47.9916 3.26202 51.1246 0.14502 54.9996 0.14502C58.8746 0.14502 62.0076 3.26202 62.0076 7.11702C62.0076 10.977 58.8746 14.094 54.9996 14.094ZM97.6246 109.508C97.5421 109.512 97.4596 109.5 97.3822 109.471C97.3048 109.442 97.2341 109.397 97.1746 109.34C97.1169 109.281 97.0719 109.21 97.0425 109.133C97.0131 109.055 96.9998 108.973 97.0036 108.89V90.426C97.0036 90.238 97.0616 90.086 97.1756 89.973C97.235 89.9159 97.3055 89.8715 97.3827 89.8426C97.4599 89.8137 97.5423 89.8009 97.6246 89.805H98.1646C98.3516 89.805 98.5036 89.859 98.6166 89.973C98.6738 90.0332 98.7182 90.1044 98.7471 90.1823C98.776 90.2601 98.7887 90.3431 98.7846 90.426V107.82H108.543C108.75 107.82 108.91 107.875 109.023 107.988C109.137 108.102 109.191 108.262 109.191 108.465V108.891C109.195 108.973 109.182 109.056 109.153 109.133C109.124 109.21 109.08 109.281 109.023 109.34C108.91 109.453 108.75 109.508 108.543 109.508H97.6246ZM91.0936 111.336C90.9926 111.337 90.8925 111.316 90.8002 111.275C90.7079 111.234 90.6255 111.174 90.5586 111.098C90.4314 110.966 90.3087 110.831 90.1906 110.691L88.9446 108.973C87.8156 109.516 86.4956 109.789 84.9876 109.789C83.4216 109.789 82.0936 109.512 80.9996 108.961C79.9056 108.406 79.0656 107.551 78.4836 106.398C77.8976 105.242 77.5776 103.785 77.5236 102.02C77.5036 101.176 77.4916 100.387 77.4916 99.656C77.4916 98.926 77.5036 98.136 77.5226 97.293C77.5776 95.547 77.9176 94.098 78.5386 92.941C79.1596 91.789 80.0226 90.93 81.1286 90.367C82.2296 89.805 83.5156 89.523 84.9886 89.523C86.4566 89.523 87.7416 89.805 88.8476 90.367C89.9486 90.93 90.8156 91.789 91.4486 92.941C92.0786 94.098 92.4136 95.547 92.4526 97.293C92.4872 98.0802 92.5055 98.8681 92.5076 99.656C92.5076 100.386 92.4876 101.176 92.4526 102.02C92.3586 104.703 91.6676 106.676 90.3866 107.934L92.1986 110.464C92.2214 110.494 92.2399 110.528 92.2536 110.563C92.2736 110.609 92.2806 110.68 92.2806 110.773C92.2814 110.847 92.2669 110.92 92.2379 110.988C92.209 111.056 92.1664 111.117 92.1126 111.168C92.0618 111.221 92.0007 111.264 91.9329 111.293C91.8652 111.322 91.7923 111.336 91.7186 111.336H91.0936ZM84.9876 108.102C86.6086 108.102 87.9406 107.613 88.9876 106.637C90.0346 105.66 90.5936 104.074 90.6716 101.879C90.7066 101.035 90.7266 100.293 90.7266 99.656C90.7266 99.02 90.7066 98.277 90.6716 97.434C90.6316 95.969 90.3626 94.777 89.8626 93.859C89.3626 92.938 88.6946 92.269 87.8546 91.844C87.0196 91.422 86.0616 91.211 84.9876 91.211C83.9296 91.211 82.9836 91.421 82.1446 91.844C81.3046 92.27 80.6366 92.938 80.1366 93.859C79.6366 94.777 79.3586 95.969 79.3046 97.434C79.2846 98.277 79.2726 99.02 79.2726 99.656C79.2726 100.293 79.2846 101.036 79.3046 101.879C79.3786 104.074 79.9446 105.66 80.9996 106.637C82.0546 107.613 83.3826 108.102 84.9876 108.102ZM61.8546 109.508C61.7723 109.512 61.6899 109.499 61.6127 109.47C61.5355 109.442 61.465 109.397 61.4056 109.34C61.3477 109.281 61.3025 109.21 61.273 109.133C61.2434 109.055 61.23 108.973 61.2336 108.89V90.14C61.2336 89.953 61.2926 89.805 61.4056 89.691C61.4651 89.6337 61.5358 89.5893 61.6132 89.5604C61.6906 89.5315 61.7731 89.5188 61.8556 89.523H62.3356C62.5266 89.523 62.6756 89.578 62.7886 89.691C62.8465 89.7503 62.8917 89.8208 62.9212 89.8982C62.9508 89.9756 62.9642 90.0582 62.9606 90.141V96.812C63.464 96.1592 64.0939 95.6147 64.8126 95.211C65.5386 94.797 66.5026 94.59 67.7106 94.59C68.9916 94.59 70.0626 94.867 70.9176 95.422C71.7776 95.972 72.4176 96.722 72.8436 97.672C73.2656 98.622 73.4796 99.695 73.4796 100.895V108.891C73.4832 108.974 73.4699 109.056 73.4405 109.133C73.4111 109.21 73.3662 109.281 73.3086 109.34C73.2485 109.398 73.1772 109.442 73.0991 109.471C73.021 109.5 72.9378 109.513 72.8546 109.508H72.3746C72.2916 109.512 72.2087 109.499 72.1308 109.471C72.053 109.442 71.9818 109.397 71.9216 109.34C71.8643 109.28 71.8198 109.21 71.7909 109.132C71.762 109.055 71.7493 108.973 71.7536 108.89V101.035C71.7536 99.535 71.3866 98.355 70.6516 97.504C69.9136 96.648 68.8396 96.223 67.4256 96.223C66.0896 96.223 65.0116 96.648 64.1906 97.503C63.3706 98.355 62.9606 99.535 62.9606 101.035V108.891C62.9641 108.974 62.9506 109.056 62.921 109.133C62.8915 109.211 62.8464 109.281 62.7886 109.34C62.7286 109.398 62.6575 109.442 62.5795 109.471C62.5016 109.5 62.4186 109.513 62.3356 109.508H61.8546ZM45.4296 114.855C45.3466 114.86 45.2636 114.847 45.1857 114.818C45.1077 114.789 45.0366 114.745 44.9766 114.687C44.9188 114.628 44.8737 114.558 44.8442 114.48C44.8146 114.403 44.8011 114.321 44.8046 114.238V95.492C44.8046 95.305 44.8626 95.152 44.9766 95.039C45.0366 94.9815 45.1077 94.9369 45.1857 94.908C45.2636 94.8791 45.3466 94.8665 45.4296 94.871H45.9096C46.0976 94.871 46.2496 94.926 46.3626 95.039C46.4198 95.0992 46.4642 95.1704 46.4931 95.2483C46.522 95.3261 46.5347 95.4091 46.5306 95.492V96.812C47.0036 96.176 47.6206 95.645 48.3826 95.222C49.1476 94.801 50.1126 94.59 51.2806 94.59C52.3946 94.59 53.3276 94.781 54.0816 95.168C54.806 95.5261 55.4351 96.0508 55.9176 96.699C56.3906 97.339 56.7376 98.051 56.9646 98.839C57.1906 99.629 57.3116 100.434 57.3316 101.262C57.3516 101.543 57.3586 101.852 57.3586 102.192C57.3586 102.527 57.3516 102.836 57.3316 103.117C57.3139 103.937 57.1905 104.751 56.9646 105.539C56.7376 106.329 56.3906 107.039 55.9176 107.679C55.4353 108.328 54.8061 108.853 54.0816 109.211C53.3276 109.598 52.3946 109.789 51.2816 109.789C50.1126 109.789 49.1476 109.574 48.3816 109.141C47.6216 108.711 47.0036 108.184 46.5316 107.566V114.238C46.5357 114.321 46.5229 114.403 46.4938 114.481C46.4647 114.558 46.4201 114.629 46.3626 114.688C46.3023 114.745 46.2311 114.789 46.1532 114.818C46.0754 114.847 45.9925 114.859 45.9096 114.855H45.4296ZM51.1126 108.156C52.2226 108.156 53.1016 107.914 53.7426 107.426C54.3826 106.938 54.8646 106.272 55.1286 105.512C55.4096 104.722 55.5696 103.879 55.6086 102.977C55.6242 102.452 55.6242 101.927 55.6086 101.402C55.5768 100.538 55.415 99.6831 55.1286 98.867C54.8633 98.1072 54.3811 97.4417 53.7416 96.953C53.1016 96.465 52.2216 96.223 51.1126 96.223C50.0386 96.223 49.1716 96.477 48.5116 96.98C47.8638 97.472 47.3605 98.1293 47.0546 98.883C46.75 99.6117 46.5727 100.387 46.5306 101.176C46.5106 101.457 46.5036 101.824 46.5036 102.273C46.5036 102.723 46.5116 103.09 46.5306 103.371C46.5506 104.121 46.7226 104.863 47.0546 105.594C47.3824 106.327 47.9003 106.96 48.5546 107.426C49.2226 107.914 50.0746 108.156 51.1126 108.156ZM33.5816 109.79C32.7146 109.799 31.8574 109.606 31.0776 109.227C30.3495 108.879 29.715 108.362 29.2266 107.719C28.7602 107.11 28.5113 106.361 28.5196 105.594C28.5196 104.32 29.0396 103.297 30.0736 102.527C31.1086 101.757 32.4566 101.262 34.1166 101.035L38.5856 100.418V99.43C38.5856 98.437 38.2766 97.652 37.6676 97.082C37.0546 96.508 36.0776 96.222 34.7376 96.222C33.7576 96.222 32.9676 96.414 32.3626 96.801C31.7616 97.184 31.3476 97.687 31.1206 98.305C31.0266 98.585 30.8476 98.727 30.5816 98.727H30.1316C29.9056 98.727 29.7456 98.668 29.6476 98.543C29.5529 98.4185 29.5035 98.2654 29.5076 98.109C29.5076 97.844 29.6086 97.516 29.8046 97.125C30.0036 96.73 30.3086 96.34 30.7266 95.953C31.1406 95.57 31.6756 95.246 32.3356 94.984C32.9956 94.723 33.7956 94.59 34.7376 94.59C35.8516 94.59 36.7696 94.738 37.4956 95.04C38.2226 95.34 38.7886 95.73 39.1956 96.207C39.5976 96.687 39.8856 97.219 40.0546 97.797C40.2266 98.379 40.3086 98.953 40.3086 99.516V108.891C40.3127 108.973 40.2999 109.056 40.271 109.133C40.2422 109.21 40.1978 109.281 40.1406 109.34C40.0804 109.397 40.0092 109.442 39.9313 109.471C39.8535 109.499 39.7705 109.512 39.6876 109.508H39.2066C39.1236 109.512 39.0407 109.499 38.9628 109.471C38.885 109.442 38.8138 109.397 38.7536 109.34C38.6963 109.28 38.6518 109.21 38.6229 109.132C38.594 109.055 38.5813 108.973 38.5856 108.89V107.566C38.3165 107.949 37.9928 108.29 37.6246 108.578C37.2106 108.918 36.6746 109.203 36.0266 109.438C35.3746 109.672 34.5616 109.789 33.5816 109.789V109.79ZM33.8626 108.156C34.7296 108.156 35.5226 107.969 36.2376 107.594C36.9526 107.219 37.5226 106.641 37.9486 105.864C38.3746 105.086 38.5856 104.105 38.5856 102.922V101.965L34.9376 102.473C33.3906 102.676 32.2226 103.035 31.4296 103.539C30.6396 104.047 30.2416 104.684 30.2416 105.453C30.2416 106.074 30.4216 106.582 30.7816 106.977C31.1406 107.367 31.5976 107.664 32.1516 107.859C32.7066 108.059 33.2766 108.156 33.8626 108.156ZM20.6286 109.508C20.5456 109.512 20.4627 109.499 20.3848 109.471C20.307 109.442 20.2358 109.397 20.1756 109.34C20.1191 109.28 20.0751 109.209 20.0462 109.132C20.0174 109.055 20.0043 108.972 20.0076 108.89V95.52C20.0076 95.332 20.0656 95.176 20.1756 95.055C20.2337 94.994 20.3042 94.946 20.3823 94.9142C20.4604 94.8825 20.5444 94.8678 20.6286 94.871H21.0816C21.2696 94.871 21.4256 94.934 21.5506 95.055C21.6111 95.1161 21.6585 95.1888 21.6899 95.2687C21.7214 95.3486 21.7362 95.4342 21.7336 95.52V96.813C22.0494 96.1775 22.5661 95.664 23.2036 95.352C23.8436 95.032 24.6366 94.872 25.5776 94.872H26.6246C26.8126 94.872 26.9646 94.926 27.0776 95.039C27.1348 95.0992 27.1792 95.1704 27.2081 95.2483C27.237 95.3261 27.2497 95.4091 27.2456 95.492V95.882C27.2456 96.074 27.1906 96.222 27.0776 96.336C27.0174 96.3932 26.9462 96.4377 26.8683 96.4665C26.7905 96.4954 26.7075 96.5082 26.6246 96.504H25.4096C24.2766 96.504 23.3826 96.832 22.7226 97.488C22.0626 98.145 21.7336 99.039 21.7336 100.164V108.891C21.7369 108.975 21.7223 109.058 21.6907 109.135C21.6591 109.213 21.6114 109.283 21.5506 109.34C21.4217 109.454 21.2537 109.514 21.0816 109.508H20.6286ZM8.38659 109.79C6.76559 109.79 5.40159 109.477 4.30059 108.848C3.21877 108.24 2.34279 107.323 1.78459 106.215C1.20659 105.09 0.894594 103.793 0.834594 102.332C0.815594 101.484 0.808594 100.594 0.808594 99.656C0.808594 98.719 0.815594 97.828 0.835594 96.98C0.894594 95.5 1.20659 94.2 1.78559 93.082C2.34995 91.9775 3.23081 91.0664 4.31559 90.465C5.42559 89.835 6.78559 89.523 8.38559 89.523C9.68759 89.523 10.8006 89.715 11.7226 90.102C12.6476 90.484 13.4026 90.965 13.9836 91.535C14.5696 92.109 15.0036 92.684 15.2846 93.265C15.5696 93.848 15.7186 94.335 15.7376 94.73C15.7505 94.8042 15.7444 94.8804 15.7199 94.9515C15.6955 95.0227 15.6534 95.0865 15.5976 95.137C15.4725 95.2457 15.3101 95.3016 15.1446 95.293H14.5226C14.3516 95.293 14.2296 95.25 14.1556 95.168C14.0776 95.082 14.0036 94.938 13.9296 94.73C13.722 94.1165 13.3996 93.5481 12.9796 93.055C12.5396 92.52 11.9446 92.078 11.1996 91.735C10.4566 91.387 9.51559 91.211 8.38659 91.211C6.70659 91.211 5.34659 91.668 4.30059 92.578C3.25359 93.488 2.69459 95.004 2.61659 97.125C2.56191 98.8132 2.56191 100.503 2.61659 102.191C2.69459 104.293 3.25359 105.801 4.30059 106.723C5.34759 107.641 6.70659 108.102 8.38659 108.102C9.49959 108.102 10.4966 107.891 11.3826 107.469C12.2647 107.052 12.9962 106.372 13.4766 105.523C13.9836 104.653 14.2376 103.539 14.2376 102.191V100.754H9.31959C9.23535 100.757 9.15139 100.743 9.07328 100.711C8.99518 100.679 8.92472 100.631 8.86659 100.57C8.75191 100.443 8.69159 100.276 8.69859 100.105V99.711C8.69859 99.508 8.75359 99.348 8.86659 99.234C8.92678 99.1768 8.99797 99.1324 9.07584 99.1035C9.15372 99.0746 9.23664 99.0619 9.31959 99.066H15.3706C15.5776 99.066 15.7376 99.121 15.8506 99.234C15.9646 99.348 16.0196 99.508 16.0196 99.711V102.191C16.0196 103.691 15.7226 105.016 15.1286 106.161C14.548 107.292 13.6416 108.222 12.5266 108.832C11.3866 109.469 10.0066 109.789 8.38659 109.789V109.79Z" fill="white"/>
</svg>
