<svg width="90" height="126" viewBox="0 0 90 126" fill="none" xmlns="http://www.w3.org/2000/svg">
<path d="M0.569336 26L8.65634 115.919L44.9453 125.601L81.3353 116.102L89.4313 26H0.569336ZM72.6103 46.471L72.1033 52.305L71.8803 55H29.3113L30.3283 67H70.8683L70.5973 69.231L67.9823 98.14L67.7903 99.83L45.0003 105.964V105.959L44.9733 105.971L22.1963 100.055L20.6503 83H31.8183L32.6093 91.46L44.9943 94.599L45.0003 94.365V94.377L57.4123 91.728L58.7083 78H20.1533L17.4193 47.164L17.1523 44H72.8763L72.6103 46.471ZM8.95634 0.627014H14.5783V6.18301H19.7223V0.627014H25.3453V17.449H19.7223V11.816H14.5793V17.449H8.95634V0.627014ZM32.7383 6.20601H27.7883V0.627014H43.3133V6.20601H38.3613V17.449H32.7383V6.20601ZM45.7773 0.627014H51.6393L55.2463 6.53801L58.8493 0.627014H64.7143V17.449H59.1133V9.11101L55.2463 15.092H55.1483L51.2783 9.11101V17.449H45.7763V0.627014H45.7773ZM67.5133 0.627014H73.1373V11.889H81.0443V17.45H67.5133V0.627014Z" fill="white"/>
</svg>
