<svg width="83" height="59" viewBox="0 0 83 59" fill="none" xmlns="http://www.w3.org/2000/svg">
<path d="M82.3466 38.736C81.4296 33.025 77.7056 28.228 66.6746 23.755C62.8426 21.994 58.5706 20.733 57.2976 17.829C56.8456 16.139 56.7856 15.187 57.0716 14.164C57.8926 10.844 61.8556 9.809 64.9966 10.761C67.0196 11.439 68.9346 12.998 70.0896 15.485C75.4916 11.987 75.4806 12.01 79.2526 9.606C77.8716 7.465 77.1346 6.477 76.2306 5.561C72.9816 1.932 68.5546 0.0629982 61.4746 0.205998L57.7866 0.682996C54.2526 1.576 50.8846 3.431 48.9096 5.918C42.9836 12.642 44.6736 24.41 51.8846 29.253C58.9886 34.585 69.4246 35.798 70.7576 40.784C72.0546 46.888 66.2716 48.864 60.5236 48.162C56.2876 47.281 53.9316 45.128 51.3846 41.213C46.6966 43.926 46.6966 43.926 41.8766 46.698C43.0196 49.197 44.2206 50.328 46.1366 52.493C55.2046 61.691 77.8966 61.239 81.9666 47.317C82.1316 46.839 83.2276 43.651 82.3466 38.736ZM35.4616 0.942998H23.7526L23.7046 31.215C23.7046 37.653 24.0376 43.555 22.9906 45.364C21.2776 48.922 16.8386 48.481 14.8156 47.791C12.7566 46.779 11.7096 45.34 10.4966 43.306C10.1636 42.722 9.91357 42.27 9.82957 42.235L0.30957 48.065C1.89257 51.314 4.22457 54.134 7.21157 55.966C11.6736 58.644 17.6706 59.465 23.9426 58.025C28.0246 56.836 31.5466 54.373 33.3906 50.624C36.0566 45.709 35.4846 39.76 35.4606 33.18C35.5206 22.445 35.4616 11.712 35.4616 0.942998Z" fill="black"/>
</svg>
