<svg width="102" height="125" viewBox="0 0 102 125" fill="none" xmlns="http://www.w3.org/2000/svg">
<path d="M50.9996 79.7C58.2996 86.8 65.4996 91 71.2996 91C73.1996 91 74.9996 90.6 76.4996 89.7C81.6996 86.7 83.5996 79.2 81.7996 68.5C81.4996 66.6 81.0996 64.7 80.5996 62.7C82.5996 62.1 84.3996 61.5 86.1996 60.9C96.2996 57 101.9 51.6 101.9 45.7C101.9 39.7 96.2996 34.3 86.1996 30.5C84.3996 29.8 82.5996 29.2 80.5996 28.7C81.0996 26.7 81.4996 24.8 81.7996 22.9C83.4996 12 81.5996 4.39998 76.3996 1.39998C74.8996 0.499976 73.0996 0.0999756 71.1996 0.0999756C65.4996 0.0999756 58.1996 4.29997 50.8996 11.4C43.6996 4.29997 36.4996 0.0999756 30.6996 0.0999756C28.7996 0.0999756 26.9996 0.499976 25.4996 1.39998C20.2996 4.39998 18.3996 11.9 20.1996 22.6C20.4996 24.5 20.8996 26.4 21.3996 28.4C19.3996 29 17.5996 29.6 15.7996 30.2C5.69961 34.1 0.0996094 39.5 0.0996094 45.4C0.0996094 51.4 5.69961 56.8 15.7996 60.6C17.5996 61.3 19.3996 61.9 21.3996 62.4C20.8996 64.4 20.4996 66.3 20.1996 68.2C18.4996 78.9 20.3996 86.5 25.4996 89.4C26.9996 90.3 28.7996 90.7 30.6996 90.7C36.4996 90.9 43.6996 86.7 50.9996 79.7ZM45.3996 66.2C47.1996 66.3 49.0996 66.3 50.9996 66.3C52.8996 66.3 54.7996 66.3 56.5996 66.2C54.7996 68.6 52.8996 70.8 50.9996 72.9C49.0996 70.8 47.1996 68.6 45.3996 66.2ZM32.9996 55.9C33.9996 57.6 34.8996 59.2 35.9996 60.8C32.8996 60.4 29.9996 59.9 27.1996 59.3C28.0996 56.6 29.0996 53.8 30.2996 51C31.0996 52.6 31.9996 54.3 32.9996 55.9ZM27.1996 31.8C29.9996 31.2 32.8996 30.7 35.9996 30.3C34.9996 31.9 33.9996 33.5 32.9996 35.2C31.9996 36.9 31.0996 38.5 30.2996 40.2C28.9996 37.3 27.9996 34.5 27.1996 31.8ZM32.6996 45.5C33.9996 42.8 35.3996 40.1 36.9996 37.4C38.4996 34.8 40.1996 32.2 41.8996 29.6C44.8996 29.4 47.8996 29.3 50.9996 29.3C54.1996 29.3 57.1996 29.4 60.0996 29.6C61.8996 32.2 63.4996 34.8 64.9996 37.4C66.5996 40.1 67.9996 42.8 69.2996 45.5C67.9996 48.2 66.5996 50.9 64.9996 53.6C63.4996 56.2 61.7996 58.8 60.0996 61.4C57.0996 61.6 54.0996 61.7 50.9996 61.7C47.7996 61.7 44.7996 61.6 41.8996 61.4C40.0996 58.8 38.4996 56.2 36.9996 53.6C35.3996 50.9 33.9996 48.2 32.6996 45.5ZM71.7996 40.1L69.0996 35.1C68.0996 33.4 67.1996 31.8 66.0996 30.2C69.1996 30.6 72.0996 31.1 74.8996 31.7C73.9996 34.5 72.9996 37.3 71.7996 40.1ZM71.7996 50.9C72.9996 53.7 73.9996 56.5 74.8996 59.2C72.0996 59.8 69.1996 60.3 66.0996 60.7C67.0996 59.1 68.0996 57.5 69.0996 55.8C69.9996 54.3 70.8996 52.6 71.7996 50.9ZM74.0996 85.6C73.2996 86.1 72.2996 86.3 71.1996 86.3C66.2996 86.3 60.1996 82.3 54.1996 76.3C57.0996 73.2 59.8996 69.7 62.6996 65.8C67.3996 65.4 71.8996 64.7 76.0996 63.7C76.5996 65.5 76.8996 67.3 77.1996 69.1C78.5996 77.6 77.4996 83.7 74.0996 85.6ZM79.2996 32.9C90.4996 36.1 97.1996 41 97.1996 45.5C97.1996 49.4 92.5996 53.3 84.4996 56.4C82.8996 57 81.0996 57.6 79.2996 58.1C77.9996 54 76.3996 49.8 74.3996 45.5C76.3996 41.2 78.0996 37 79.2996 32.9ZM71.2996 4.69998C72.3996 4.69998 73.2996 4.89998 74.1996 5.39998C77.4996 7.29998 78.6996 13.3 77.2996 21.9C76.9996 23.6 76.5996 25.4 76.1996 27.3C71.9996 26.4 67.4996 25.7 62.7996 25.2C60.0996 21.3 57.1996 17.8 54.2996 14.7C60.2996 8.79998 66.3996 4.69998 71.2996 4.69998ZM56.5996 24.8C54.7996 24.7 52.8996 24.7 50.9996 24.7C49.0996 24.7 47.1996 24.7 45.3996 24.8C47.1996 22.4 49.0996 20.2 50.9996 18.1C52.8996 20.2 54.7996 22.5 56.5996 24.8ZM27.8996 5.39998C28.6996 4.89998 29.6996 4.69998 30.7996 4.69998C35.6996 4.69998 41.7996 8.69998 47.7996 14.7C44.8996 17.8 42.0996 21.3 39.2996 25.2C34.5996 25.6 30.0996 26.3 25.8996 27.3C25.3996 25.5 25.0996 23.7 24.7996 21.9C23.3996 13.4 24.4996 7.39998 27.8996 5.39998ZM22.6996 58.1C11.4996 54.9 4.79961 50 4.79961 45.5C4.79961 41.6 9.39961 37.7 17.4996 34.6C19.0996 34 20.8996 33.4 22.6996 32.9C23.9996 37 25.5996 41.2 27.5996 45.5C25.5996 49.8 23.8996 54.1 22.6996 58.1ZM24.7996 69.1C25.0996 67.4 25.4996 65.6 25.8996 63.7C30.0996 64.6 34.5996 65.3 39.2996 65.8C41.9996 69.7 44.8996 73.2 47.7996 76.3C41.7996 82.2 35.6996 86.3 30.7996 86.3C29.6996 86.3 28.7996 86.1 27.8996 85.6C24.4996 83.7 23.3996 77.6 24.7996 69.1ZM20.5996 110.3C22.7996 107.6 22.8996 104.6 21.6996 101.6C20.4996 98.6 17.9996 97.2 14.8996 97.1C11.1996 97 7.39961 97.1 3.69961 97.1H2.99961V123H5.99961V113.2H10.6996C11.2996 113.2 11.7996 113.4 12.0996 113.9L18.0996 123.2C18.1996 123.4 18.4996 123.7 18.6996 123.7H22.5996C20.1996 120 17.8996 116.5 15.4996 112.9C17.5996 112.6 19.3996 111.9 20.5996 110.3ZM5.99961 110.1V100.2H7.09961C9.39961 100.2 11.7996 100.1 14.0996 100.3C16.7996 100.4 18.6996 102.5 18.6996 105.2C18.6996 107.9 16.4996 110 13.7996 110.1C11.3996 110.2 8.99961 110.1 5.99961 110.1ZM44.6996 111.4C43.0996 104.4 36.6996 102.6 31.7996 104.8C27.9996 106.5 26.2996 109.8 26.1996 113.9C26.0996 117 26.9996 119.8 29.3996 121.9C32.0996 124.3 35.3996 124.6 38.7996 124C40.6996 123.6 42.3996 122.7 43.6996 121.3C43.1996 120.6 42.6996 119.9 42.1996 119.3C39.3996 121.7 36.2996 122.5 32.8996 120.9C30.6996 119.8 29.5996 117.1 29.3996 115.1H44.8996V113.8C44.9996 112.9 44.8996 112.1 44.6996 111.4ZM29.5996 113C29.2996 110 32.2996 106.8 35.5996 106.8C39.3996 106.7 41.7996 109 41.8996 113H29.5996ZM60.2996 104.3C58.7996 104 57.1996 103.9 55.6996 104C53.2996 104.2 51.1996 105.3 49.4996 107.1C49.9996 107.8 50.3996 108.5 50.9996 109.3C51.1996 109.1 51.3996 108.9 51.5996 108.8C53.1996 107.3 55.0996 106.5 57.3996 106.7C59.1996 106.8 60.8996 107.4 61.3996 109.2C61.7996 110.6 61.6996 112.1 61.7996 113.6C61.4996 113.6 61.3996 113.5 61.2996 113.4C58.8996 111.4 56.1996 111 53.2996 111.7C50.5996 112.4 48.8996 114.5 48.6996 117.2C48.4996 120.3 49.8996 122.6 52.5996 123.7C54.2996 124.4 56.1996 124.4 57.9996 124C59.3996 123.7 59.9996 122.9 61.9996 121.8V123.1H64.7996C64.7996 119.1 64.8996 114.2 64.7996 109.6C64.7996 106.7 63.0996 104.9 60.2996 104.3ZM61.6996 116.9C61.5996 117.2 61.6996 117.5 61.6996 117.8C61.6996 119.9 61.1996 120.6 59.1996 121.4C57.7996 121.9 56.2996 122.1 54.7996 121.6C53.0996 121.1 51.8996 119.6 51.8996 117.9C51.7996 116.2 52.8996 114.5 54.5996 114C56.8996 113.2 58.9996 113.7 60.8996 115.1C61.4996 115.6 61.8996 116.1 61.6996 116.9ZM77.2996 107C79.8996 106.2 82.2996 106.7 84.0996 108.9L84.3996 109.1C85.0996 108.5 85.6996 107.9 86.4996 107.2C86.1996 106.9 86.0996 106.7 85.8996 106.4C82.9996 103.3 77.2996 102.9 73.7996 105.4C68.8996 109 68.9996 116 71.3996 119.7C73.6996 123.2 76.9996 124.4 80.8996 123.9C83.1996 123.6 85.0996 122.5 86.5996 120.6C85.8996 120 85.1996 119.4 84.4996 118.7C84.2996 118.9 84.1996 119 84.0996 119.2C81.3996 122.2 76.8996 121.9 74.4996 118.7C73.0996 116.8 72.7996 114.6 73.1996 112.4C73.3996 109.9 74.6996 107.9 77.2996 107ZM98.0996 120.6C97.8996 120.7 97.7996 120.8 97.7996 120.8C96.9996 121.4 96.1996 121.5 95.2996 121.2C94.3996 120.8 94.2996 120 94.1996 119.2V107.8C94.1996 107.6 94.1996 108 94.2996 107H98.0996V104H94.0996V99H91.0996V104.4H88.4996C88.2996 104.4 87.9996 104.6 87.9996 104.8C87.8996 105.5 87.9996 106 87.9996 107H91.1996V119.8C91.1996 121.4 91.5996 122.8 92.9996 123.6C94.4996 124.5 97.3996 124.3 98.6996 123.2C98.8996 123.1 98.9996 122.7 98.9996 122.6C98.6996 122 98.3996 121.3 98.0996 120.6Z" fill="white"/>
</svg>
